PathFileType	4	(X/Y/Z)	DARI_DATA/Captury_Subj7_bilateral_squat01.trc
DataRate	CameraRate	NumFrames	NumMarkers	Units	OrigDataRate	OrigDataStartFrame	OrigNumFrames
60	60	4	47	mm	60.00239944458008	179	357
Frame#	Time		LeftUpLeg_		RightUpLeg_		LeftLeg_		RightLeg_		LeftFoot_		RightFoot_		LeftToeBase_		RightToeBase_		Knee_Lateral_r		Knee_Lateral_l		Ankle_Lateral_r		Ankle_Lateral_l		LeftArm_		LeftForeArm_		LeftHand_		LeftHandEE		RightArm_		RightForeArm_		RightHand_		RightHandEE		Spine_		Spine1_		Spine2_		Spine3_		Spine4_		Spine5_		Spine_x		Spine_y		Spine_z		RASI		LASI		RIPS		LIPS		RTHI		LTHI		RTIB		LTIB		RTOE		LTOE		RHEE		LHEE		RHipAngles		LHipAngles		RKneeAngles		LKneeAngles		RAnkleAngles		LAnkleAngles
			X1	Y1	Z1	X2	Y2	Z2	X3	Y3	Z3	X4	Y4	Z4	X5	Y5	Z5	X6	Y6	Z6	X7	Y7	Z7	X8	Y8	Z8	X9	Y9	Z9	X10	Y10	Z10	X11	Y11	Z11	X12	Y12	Z12	X13	Y13	Z13	X14	Y14	Z14	X15	Y15	Z15	X16	Y16	Z16	X17	Y17	Z17	X18	Y18	Z18	X19	Y19	Z19	X20	Y20	Z20	X21	Y21	Z21	X22	Y22	Z22	X23	Y23	Z23	X24	Y24	Z24	X25	Y25	Z25	X26	Y26	Z26	X27	Y27	Z27	X28	Y28	Z28	X29	Y29	Z29	X30	Y30	Z30	X31	Y31	Z31	X32	Y32	Z32	X33	Y33	Z33	X34	Y34	Z34	X35	Y35	Z35	X36	Y36	Z36	X37	Y37	Z37	X38	Y38	Z38	X39	Y39	Z39	X40	Y40	Z40	X41	Y41	Z41	X42	Y42	Z42	X43	Y43	Z43	X44	Y44	Z44	X45	Y45	Z45	X46	Y46	Z46	X47	Y47	Z47

179	2.96667	-138.36983	418.15558	208.74722	36.34937	424.65430	228.20796	-360.74884	433.50766	-156.24377	253.48201	431.74731	-140.17998	-275.22321	89.36319	17.14159	181.05591	86.86179	37.64272	-313.82297	28.63053	-99.30515	214.00800	27.44156	-81.19179	296.98618	430.82404	-117.46008	-403.91367	431.36093	-132.96619	216.56494	87.67315	76.80460	-309.64957	89.15836	57.26622	-195.53981	821.09528	-93.39819	-310.22552	833.27777	-373.53659	-334.17010	846.28204	-630.68042	-341.23132	862.13068	-723.44177	90.92361	815.88800	-83.59744	189.83557	819.95331	-369.91660	221.44301	836.24457	-626.04352	229.88925	850.61798	-718.92932	-51.57373	515.73120	192.03734	-47.87329	587.22107	127.69541	-48.40923	649.10529	99.10345	-51.64133	735.12781	76.15058	-52.70906	833.52612	-13.07883	-0.00000	0.00000	-0.00000	-2.75858	517.54688	197.47452	-50.71909	559.52472	169.73991	-57.24199	537.97101	235.50043	107.96277	441.52664	117.41591	-184.92813	430.63245	84.79287	-16.43535	504.25153	235.84338	-94.53960	501.34641	227.14391	197.06158	423.55640	90.34126	-300.98615	419.15305	73.13095	262.32236	269.40460	-55.29477	-349.76227	216.91223	-51.87003	240.71913	21.50312	-153.35159	-343.00546	26.80721	-170.72533	148.88794	24.65885	84.85078	-245.55096	26.78864	65.47965	-117.41734	21.24355	3.07750	-119.41389	34.65739	-0.79090	-114.30766	0.35822	-1.44413	-115.77097	0.05357	-0.66821	-18.42657	-5.77503	-9.83359	-18.19229	-5.71647	-4.85217
180	2.98333	-137.98691	417.91687	208.62576	36.73840	424.68552	227.93901	-360.43250	433.39362	-156.31937	253.85342	431.54385	-140.46367	-275.27734	89.15222	17.05583	181.03082	86.84149	37.55222	-313.92001	28.42934	-99.38174	213.94388	27.25289	-81.20874	297.35886	430.65942	-117.74470	-403.59314	431.24127	-133.03452	216.51653	87.66195	76.73503	-309.71167	88.98395	57.17381	-195.42105	821.23151	-93.78139	-309.91461	833.29913	-374.00336	-334.15674	846.57037	-631.10571	-341.53137	862.06232	-723.90295	91.03726	815.95551	-83.88698	189.93108	819.85858	-370.21466	221.33733	836.45026	-626.34705	229.45018	850.27094	-719.34644	-51.35090	515.61523	191.80251	-47.77519	587.14215	127.42479	-48.35867	649.06897	98.81314	-51.59870	735.13770	75.85992	-52.61823	833.61517	-13.35324	-0.00000	0.00000	-0.00000	-2.53405	517.50635	197.19849	-50.58030	559.40045	169.48576	-57.01649	537.86505	235.26080	108.23473	441.61780	117.08055	-184.66638	430.27121	84.70471	-16.15913	504.20688	235.58430	-94.26610	501.18109	226.95074	197.44562	423.53384	90.06697	-300.62814	418.96390	73.03976	262.50635	269.25281	-55.46040	-349.67822	216.77974	-51.95976	240.70157	21.23271	-153.34448	-343.10187	26.71363	-170.80484	148.70038	24.74522	84.78969	-245.68733	26.55814	65.41899	-117.38492	21.28797	3.13501	-119.44564	34.61532	-0.88131	-114.32824	0.27949	-1.43691	-115.75910	0.11183	-0.66528	-18.39375	-5.77568	-9.89472	-18.17579	-5.71645	-4.83435
181	3.00000	-137.68317	417.87607	208.44957	37.07841	424.50122	227.48239	-360.25720	433.25977	-156.42125	254.31024	431.23151	-140.85388	-275.42776	88.92508	16.92862	181.09348	86.80200	37.52812	-314.11484	28.18577	-99.48567	213.99738	27.12476	-81.19088	297.80823	430.32462	-118.12151	-403.41016	431.13943	-133.11925	216.56335	87.62225	76.72529	-309.85245	88.80409	57.05502	-195.37732	821.50739	-93.99570	-309.48581	833.32397	-374.38541	-334.12936	846.63141	-631.44781	-341.89594	862.22070	-724.19678	91.07012	815.98956	-84.17955	190.06165	819.71545	-370.47589	221.84625	836.21399	-626.56769	228.69608	850.85565	-719.54303	-51.00066	515.51868	191.54230	-47.48537	587.12720	127.17465	-48.09174	649.11566	98.57211	-51.35983	735.24164	75.64425	-52.51496	833.81372	-13.54087	-0.00000	0.00000	-0.00000	-2.17367	517.36969	196.85991	-50.23320	559.31635	169.24986	-56.57867	537.74738	235.02274	108.40707	441.44418	116.51755	-184.55487	430.33813	84.61187	-15.74635	504.05811	235.26010	-93.86953	501.09650	226.75192	197.82733	423.25922	89.65974	-300.37424	418.92490	72.92336	262.77710	269.03012	-55.66090	-349.70911	216.63354	-52.06612	240.80202	21.13740	-153.31195	-343.33234	26.55085	-170.89610	148.67737	24.76107	84.77962	-245.82970	26.33619	65.29362	-117.35297	21.39748	3.11760	-119.38234	34.54684	-0.85413	-114.39553	0.28508	-1.42701	-115.71535	0.13046	-0.66546	-18.42896	-5.77637	-9.91773	-18.14529	-5.71662	-4.87864
182	3.01667	-137.69008	417.63678	208.08081	37.06136	424.15460	227.24319	-360.39026	433.10831	-156.70929	254.60490	431.20239	-140.90308	-275.41110	88.84842	16.71570	180.94537	86.82910	37.40524	-314.08038	27.96857	-99.63107	213.93539	27.28938	-81.35888	298.08328	430.23685	-118.13564	-403.53598	431.02505	-133.39056	216.38531	87.58866	76.63068	-309.81445	88.75287	56.86046	-195.19513	821.77429	-93.92487	-308.74582	833.28302	-374.55371	-334.09512	846.73834	-631.53973	-342.19211	862.16010	-724.28845	91.24973	815.81836	-84.32088	190.45380	819.56104	-370.54340	222.43501	836.48590	-626.58289	228.32468	850.40784	-719.73444	-50.95812	515.27942	191.42941	-47.37060	587.03699	127.10384	-47.93537	649.11792	98.49442	-51.15337	735.32037	75.52685	-52.26019	833.94299	-13.73226	-0.00000	0.00000	-0.00000	-2.13396	517.10046	196.78322	-50.15868	559.12195	169.22644	-56.55636	537.42200	234.95116	108.47049	441.29474	116.36043	-184.47449	430.36859	84.23756	-15.73740	503.71628	235.14729	-93.85606	500.80264	226.58119	197.92429	422.97690	89.55310	-300.43146	418.77777	72.61577	262.86234	268.98859	-55.71319	-349.75067	216.52107	-52.28257	240.81085	21.46600	-153.46701	-343.35431	26.33798	-171.01849	148.49387	24.73377	84.56087	-245.68881	26.33832	65.10638	-117.30779	21.40556	3.12947	-119.25374	34.61106	-0.86297	-114.46339	0.30602	-1.42227	-115.74599	0.08799	-0.67125	-18.50641	-5.77671	-9.89966	-18.09776	-5.71709	-4.93836
